<svg xmlns="http://www.w3.org/2000/svg" version="1.1" xmlns:xlink="http://www.w3.org/1999/xlink" xmlns:svgjs="http://svgjs.dev/svgjs" width="2000" height="1500" viewBox="0 0 2000 1500"><rect width="2000" height="1500" fill="#111111"></rect><g transform="matrix(0.75,0,0,0.75,249.090909090909,573.00656216332)"><svg viewBox="0 0 396 94" data-background-color="#111111" preserveAspectRatio="xMidYMid meet" height="474" width="2000" xmlns="http://www.w3.org/2000/svg" xmlns:xlink="http://www.w3.org/1999/xlink"><g id="tight-bounds" transform="matrix(1,0,0,1,0.2400000000000091,-0.2000473793307549)"><svg viewBox="0 0 395.52 94.40009475866152" height="94.40009475866152" width="395.52"><g><svg viewBox="0 0 395.52 94.40009475866152" height="94.40009475866152" width="395.52"><g><svg viewBox="0 0 395.52 94.40009475866152" height="94.40009475866152" width="395.52"><g id="textblocktransform"><svg viewBox="0 0 395.52 94.40009475866152" height="94.40009475866152" width="395.52" id="textblock"><g><svg viewBox="0 0 395.52 94.40009475866152" height="94.40009475866152" width="395.52"><g transform="matrix(1,0,0,1,0,0)"><svg width="395.52" viewBox="4.2 -39.95 168.84 40.300000000000004" height="94.40009475866152" data-palette-color="#ffffff"><path d="M10.15-37.55L10.15-2.1Q10.15 0.3 7.15 0.3L7.15 0.3Q4.2 0.3 4.2-2.1L4.2-2.1 4.2-37.55Q4.2-39.95 7.15-39.95L7.15-39.95Q10.15-39.95 10.15-37.55L10.15-37.55ZM40.3-10.5L40.3-37.55Q40.3-39.95 43.25-39.95L43.25-39.95Q46.2-39.95 46.2-37.55L46.2-37.55 46.2-3.05Q46.2-1.3 44.35-0.5L44.35-0.5 44.4-0.5Q43.6-0.15 42.7 0.05 41.8 0.25 40.95 0.25L40.95 0.25Q40.3 0.25 39.6 0.13 38.9 0 38.27-0.28 37.65-0.55 37.12-1.03 36.6-1.5 36.3-2.2L36.3-2.2 25.45-29.25 24.1-29.1 24.1-2.1Q24.1 0.3 21.1 0.3L21.1 0.3Q18.15 0.3 18.15-2.1L18.15-2.1 18.15-36.55Q18.15-38.6 19.95-39.3L19.95-39.3Q21.6-39.95 23.45-39.95L23.45-39.95Q24.75-39.95 26.07-39.43 27.4-38.9 28.1-37.45L28.1-37.45 38.9-10.35 40.3-10.5ZM62.95-22.85L72.59-22.85Q73.9-22.85 75.3-22.3 76.7-21.75 78-20.85L78-20.85 77.95-20.85Q79.25-19.95 79.95-18.4 80.65-16.85 80.65-14.85L80.65-14.85 80.65-8Q80.65-3.95 77.95-1.95L77.95-1.95Q76.65-1 75.27-0.48 73.9 0.05 72.59 0.05L72.59 0.05 61.7 0.05Q60.4 0.05 59.02-0.48 57.65-1 56.35-1.95L56.35-1.95Q53.65-3.95 53.65-8L53.65-8 53.65-11.3Q53.65-13.65 56.6-13.65L56.6-13.65Q59.6-13.65 59.6-11.3L59.6-11.3 59.6-8.4Q59.6-7.1 60.35-6.05 61.1-5 62.95-5L62.95-5 71.34-5Q73.2-5 73.95-6.05 74.7-7.1 74.7-8.4L74.7-8.4 74.7-14.45Q74.7-15.7 73.95-16.78 73.2-17.85 71.34-17.85L71.34-17.85 61.7-17.85Q59.1-17.85 56.35-19.75L56.35-19.75Q53.65-21.85 53.65-25.8L53.65-25.8 53.65-31.75Q53.65-33.75 54.35-35.27 55.05-36.8 56.35-37.75L56.35-37.75 56.3-37.75Q57.6-38.6 59-39.15 60.4-39.7 61.7-39.7L61.7-39.7 72.59-39.7Q73.9-39.7 75.3-39.15 76.7-38.6 78-37.75L78-37.75 77.95-37.75Q79.25-36.8 79.95-35.27 80.65-33.75 80.65-31.75L80.65-31.75 80.65-28.8Q80.65-26.45 77.65-26.45L77.65-26.45Q74.7-26.45 74.7-28.8L74.7-28.8 74.7-31.3Q74.7-32.55 73.95-33.6 73.2-34.65 71.34-34.65L71.34-34.65 62.95-34.65Q61.1-34.65 60.35-33.6 59.6-32.55 59.6-31.3L59.6-31.3 59.6-26.2Q59.6-24.9 60.35-23.88 61.1-22.85 62.95-22.85L62.95-22.85ZM109.99 0.05L91.69 0.05Q89.84 0.05 89.19-0.9 88.54-1.85 88.54-3L88.54-3 88.54-36.7Q88.54-37.85 89.19-38.78 89.84-39.7 91.69-39.7L91.69-39.7 109.09-39.7Q110.94-39.7 111.04-37.2L111.04-37.2Q111.14-34.65 109.09-34.65L109.09-34.65 94.44-34.65 94.44-5 109.99-5Q111.84-5 111.89-2.55L111.89-2.55Q111.99 0.05 109.99 0.05L109.99 0.05ZM107.24-20.65L107.24-20.65Q107.24-18.9 106.02-17.7 104.79-16.5 103.04-16.5L103.04-16.5Q101.34-16.5 100.14-17.7 98.94-18.9 98.94-20.65L98.94-20.65Q98.94-22.4 100.14-23.6 101.34-24.8 103.04-24.8L103.04-24.8Q104.79-24.8 106.02-23.6 107.24-22.4 107.24-20.65ZM138.79 0.05L120.49 0.05Q118.64 0.05 117.99-0.9 117.34-1.85 117.34-3L117.34-3 117.34-36.7Q117.34-37.85 117.99-38.78 118.64-39.7 120.49-39.7L120.49-39.7 137.89-39.7Q139.74-39.7 139.84-37.2L139.84-37.2Q139.94-34.65 137.89-34.65L137.89-34.65 123.24-34.65 123.24-5 138.79-5Q140.64-5 140.69-2.55L140.69-2.55Q140.79 0.05 138.79 0.05L138.79 0.05ZM136.04-20.65L136.04-20.65Q136.04-18.9 134.81-17.7 133.59-16.5 131.84-16.5L131.84-16.5Q130.14-16.5 128.94-17.7 127.74-18.9 127.74-20.65L127.74-20.65Q127.74-22.4 128.94-23.6 130.14-24.8 131.84-24.8L131.84-24.8Q133.59-24.8 134.81-23.6 136.04-22.4 136.04-20.65ZM156.94-5L163.74-5Q165.59-5 166.34-6.05 167.09-7.1 167.09-8.4L167.09-8.4 167.09-31.3Q167.09-32.55 166.34-33.6 165.59-34.65 163.74-34.65L163.74-34.65 152.04-34.65 151.99-2.05Q151.99-0.95 151.14-0.3 150.29 0.35 149.04 0.35L149.04 0.35Q146.09 0.35 146.09-2.05L146.09-2.05 146.09-36.7Q146.09-38.5 147.01-39.1 147.94-39.7 149.24-39.7L149.24-39.7 164.99-39.7Q166.29-39.7 167.69-39.15 169.09-38.6 170.39-37.75L170.39-37.75 170.34-37.75Q171.64-36.8 172.34-35.27 173.04-33.75 173.04-31.75L173.04-31.75 173.04-8Q173.04-3.95 170.34-1.95L170.34-1.95Q169.04-1 167.66-0.48 166.29 0.05 164.99 0.05L164.99 0.05 156.59 0.05Q155.74 0.05 155.26-0.65 154.79-1.35 154.79-2.5L154.79-2.5Q154.79-5 156.94-5L156.94-5Z" opacity="1" transform="matrix(1,0,0,1,0,0)" fill="#ffffff" class="wordmark-text-0" data-fill-palette-color="primary" id="text-0"></path></svg></g></svg></g></svg></g></svg></g></svg></g><defs></defs></svg><rect width="395.52" height="94.40009475866152" fill="none" stroke="none" visibility="hidden"></rect></g></svg></g></svg>