<?xml version="1.0" standalone="no"?>
<!DOCTYPE svg PUBLIC "-//W3C//DTD SVG 20010904//EN"
 "http://www.w3.org/TR/2001/REC-SVG-20010904/DTD/svg10.dtd">
<svg version="1.0" xmlns="http://www.w3.org/2000/svg"
 width="2000.000000pt" height="1500.000000pt" viewBox="0 0 2000.000000 1500.000000"
 preserveAspectRatio="xMidYMid meet">

<g transform="translate(0.000000,1500.000000) scale(0.100000,-0.100000)"
fill="#000000" stroke="none">
<path d="M0 7500 l0 -7500 10000 0 10000 0 0 7500 0 7500 -10000 0 -10000 0 0
-7500z m2925 1761 c50 -22 91 -70 105 -120 7 -27 9 -564 8 -1663 l-3 -1624
-28 -42 c-15 -23 -46 -52 -70 -64 -37 -20 -56 -23 -162 -23 -128 0 -173 13
-218 63 -48 52 -46 -4 -47 1715 0 1758 -3 1655 53 1716 43 46 92 61 212 61 85
0 119 -5 150 -19z m1484 -6 c84 -27 159 -82 200 -148 10 -18 234 -572 497
-1232 262 -660 480 -1203 483 -1206 3 -4 32 -4 63 -2 l58 5 2 1237 c3 1128 4
1239 20 1266 44 80 101 105 243 105 142 0 199 -25 243 -105 16 -27 17 -161 20
-1604 3 -1772 8 -1645 -72 -1719 -55 -51 -103 -76 -197 -102 -252 -70 -517 2
-596 162 -12 24 -236 579 -499 1233 -262 655 -477 1191 -478 1191 0 1 -27 -1
-58 -3 l-58 -5 -2 -1232 -3 -1231 -27 -47 c-39 -65 -95 -91 -210 -96 -147 -7
-231 28 -269 112 -18 39 -19 99 -19 1619 0 1105 3 1591 11 1621 33 131 191
204 441 205 109 1 138 -3 207 -24z m4326 -9 c33 -9 116 -44 184 -77 106 -52
133 -71 195 -132 75 -76 118 -150 153 -263 15 -51 18 -95 18 -310 l0 -251 -29
-37 c-47 -62 -101 -81 -231 -81 -116 0 -150 10 -203 59 -49 44 -55 69 -61 276
-7 191 -7 196 -36 249 -36 65 -82 105 -144 122 -69 21 -905 20 -976 0 -66 -20
-126 -80 -154 -156 -21 -56 -22 -70 -19 -369 l3 -311 27 -50 c32 -60 70 -98
123 -122 36 -16 88 -18 575 -23 527 -6 536 -6 605 -29 39 -13 102 -39 140 -59
195 -97 294 -204 353 -377 l27 -80 3 -435 c3 -354 0 -449 -12 -505 -45 -216
-152 -347 -371 -456 -181 -89 -177 -89 -810 -89 -624 0 -626 0 -794 80 -203
97 -313 214 -372 395 -21 64 -23 93 -27 328 -4 248 -3 259 18 302 35 72 90 99
215 103 152 6 227 -23 269 -103 18 -36 21 -63 26 -250 6 -202 7 -212 32 -260
36 -70 83 -113 142 -130 73 -22 909 -22 983 0 60 18 111 64 144 131 24 49 24
52 27 403 2 302 0 361 -13 402 -26 76 -69 127 -133 157 l-57 27 -540 5 -540 5
-87 31 c-204 73 -343 185 -417 335 -66 134 -71 172 -71 594 0 422 5 459 71
595 59 119 141 199 274 267 115 58 204 90 284 103 31 4 301 7 601 6 482 -2
552 -4 605 -20z m3165 -1 c22 -13 44 -39 60 -70 21 -43 25 -64 25 -145 0 -108
-16 -148 -75 -187 l-33 -23 -678 0 -679 0 0 -1315 0 -1315 703 0 703 0 44 -22
c68 -35 84 -72 88 -198 3 -94 1 -110 -20 -149 -45 -87 23 -81 -964 -81 -976 0
-943 -2 -1006 69 -20 21 -44 60 -54 87 -18 47 -19 103 -19 1614 l0 1565 23 50
c40 86 81 118 174 134 29 5 418 8 863 7 793 -1 811 -1 845 -21z m2516 14 c52
-13 98 -60 113 -116 6 -21 11 -74 11 -118 0 -64 -5 -90 -22 -125 -44 -84 -2
-80 -770 -80 l-678 0 0 -1315 0 -1315 698 0 c442 0 710 -4 734 -10 81 -23 125
-119 116 -255 -5 -80 -25 -125 -71 -159 -28 -21 -32 -21 -905 -24 -754 -2
-883 0 -927 13 -68 19 -100 46 -133 108 l-27 52 0 1590 0 1590 29 53 c36 64
91 101 169 112 87 13 1611 12 1663 -1z m2430 0 c135 -19 305 -92 422 -182 107
-82 189 -234 212 -392 8 -57 10 -408 8 -1230 -4 -1270 1 -1186 -67 -1330 -59
-126 -179 -234 -347 -311 -154 -71 -177 -74 -653 -74 -397 0 -429 1 -461 19
-92 49 -121 262 -49 363 45 62 46 63 474 68 l390 5 45 25 c55 31 105 96 125
162 22 76 23 2158 0 2234 -25 85 -66 138 -132 170 l-58 29 -561 3 -561 3 -6
-773 c-4 -425 -7 -1087 -7 -1471 0 -771 3 -736 -65 -796 -58 -51 -92 -61 -203
-61 -88 0 -104 3 -152 28 -42 21 -60 37 -77 71 l-23 44 0 1602 c0 1751 -3
1670 57 1727 33 32 91 57 153 68 73 12 1447 12 1536 -1z m-5403 -1353 c72 -35
138 -101 174 -174 25 -51 28 -68 28 -157 0 -89 -3 -106 -27 -155 -35 -71 -107
-143 -178 -178 -49 -24 -66 -27 -160 -27 -101 0 -108 1 -168 34 -122 66 -183
163 -190 302 -7 143 38 245 146 324 69 51 121 65 228 62 75 -2 100 -7 147 -31z
m2565 -6 c152 -81 229 -249 188 -410 -30 -115 -99 -199 -206 -249 -48 -23 -68
-26 -155 -26 -89 0 -106 3 -157 28 -84 41 -162 130 -188 213 -59 192 28 385
208 461 49 20 70 23 152 20 86 -2 101 -6 158 -37z"/>
</g>
</svg>
